<svg xmlns="http://www.w3.org/2000/svg" viewBox="96 44 352 420" role="img" aria-label="Lydex favicon">
  <path d="M199.08 108.34v261.04c0 3.86-.39 8.32-1.84 10.74-3.44 5.73-11.18 9.78-20.55 17.03-9.36 7.25-25.37 19.54-27.73 25.8-.19.46-.67.79-1.22.79-.21 0-.49-.1-.61-.16-14.42-7.55-22.19-22.4-22.19-39.97V108.34c0-21.77 17.11-40.43 37.07-40.43s37.07 18.66 37.07 40.43Z" fill="#333"/>
  <path d="M206.09 382.55c25.87-22.67 75.84-36.01 116.13-36.01 36.73 0 76.67 8.06 94.44 12.8 1.18 3.55-14.47 23.92-23.23 32.27-8.76 8.35-36.31 30.33-55.27 37.44-16.59 7.11-39.1 9.48-68.73 9.48 0 0-100.28-1.59-112.38-7.29-12.1-5.7 23.16-26.01 49.03-48.68Z" fill="#999"/>
</svg>

